<svg width="25" height="24" viewBox="0 0 25 24" fill="none" xmlns="http://www.w3.org/2000/svg">
<path fill-rule="evenodd" clip-rule="evenodd" d="M5.00364 0.800049C2.74168 0.800049 0.900024 2.5446 0.900024 4.70364V16.1383V19.2965C0.900024 21.4555 2.74168 23.2001 5.00364 23.2001H19.9964C22.2584 23.2001 24.1 21.4555 24.1 19.2965V7.86185C24.1 5.7028 22.2584 3.95825 19.9964 3.95825H14.4955C13.4655 3.95825 12.9182 3.77177 12.6025 3.547C12.2869 3.32224 12.1505 3.03349 12.0135 2.65942C11.8765 2.28536 11.7647 1.82878 11.4046 1.43552C11.0445 1.04226 10.4485 0.800049 9.5785 0.800049H5.00364ZM5.00364 1.64005H9.5785C10.2994 1.64005 10.571 1.79274 10.7532 1.99169C10.9354 2.19064 11.0411 2.52387 11.1933 2.93942C11.3455 3.35498 11.57 3.85549 12.086 4.22294C12.6019 4.59039 13.3561 4.79825 14.4955 4.79825H19.9964C21.7991 4.79825 23.23 6.16126 23.23 7.86185V19.2965C23.23 20.997 21.7991 22.3601 19.9964 22.3601H5.00364C3.20093 22.3601 1.77002 20.997 1.77002 19.2965V16.1383V4.70364C1.77002 3.00306 3.20093 1.64005 5.00364 1.64005Z" fill="#DB5050"/>
<path fill-rule="evenodd" clip-rule="evenodd" d="M5.00364 8.36879C2.74176 8.36879 0.900024 10.1128 0.900024 12.2718V16.1383V19.2965C0.900024 21.4555 2.74168 23.2001 5.00364 23.2001H19.9964C22.2584 23.2001 24.1 21.4555 24.1 19.2965V12.2718C24.1 10.1128 22.2583 8.36879 19.9964 8.36879H5.00364ZM5.00364 9.20879H19.9964C21.7992 9.20879 23.23 10.5713 23.23 12.2718V19.2965C23.23 20.997 21.7991 22.3601 19.9964 22.3601H5.00364C3.20093 22.3601 1.77002 20.997 1.77002 19.2965V16.1383V12.2718C1.77002 10.5713 3.20086 9.20879 5.00364 9.20879Z" fill="#DB5050"/>
</svg>
