<svg width="16" height="25" viewBox="0 0 16 25" fill="none" xmlns="http://www.w3.org/2000/svg">
<path d="M2.87996 0.592041C1.82735 0.592041 0.959961 1.48111 0.959961 2.56004V23.552C0.959911 23.6757 0.993933 23.7968 1.05811 23.9014C1.12228 24.0061 1.214 24.09 1.32269 24.1436C1.43138 24.1972 1.55262 24.2182 1.67245 24.2042C1.79227 24.1902 1.9058 24.1418 1.99996 24.0645L7.99996 19.1445L14 24.0645C14.0941 24.1418 14.2077 24.1902 14.3275 24.2042C14.4473 24.2182 14.5685 24.1972 14.6772 24.1436C14.7859 24.09 14.8776 24.0061 14.9418 23.9014C15.006 23.7968 15.04 23.6757 15.04 23.552V2.56004C15.04 1.48111 14.1726 0.592041 13.12 0.592041H2.87996ZM2.87996 1.90404H13.12C13.4856 1.90404 13.76 2.18527 13.76 2.56004V22.1888L8.39996 17.7915C8.28645 17.6984 8.14537 17.6476 7.99996 17.6476C7.85455 17.6476 7.71348 17.6984 7.59996 17.7915L2.23996 22.1888V2.56004C2.23996 2.18527 2.51433 1.90404 2.87996 1.90404Z" fill="#684DDF"/>
</svg>
