<svg width="23" height="24" viewBox="0 0 23 24" fill="none" xmlns="http://www.w3.org/2000/svg">
<path d="M10.1898 0.848062C10.1736 0.848835 10.1574 0.850216 10.1413 0.852203C4.36187 1.55453 0.00716587 6.42784 1.35916e-07 12.2022C-4.53055e-08 12.2019 -4.53055e-08 12.2024 1.35916e-07 12.2022C1.35916e-07 18.5179 5.17657 23.6523 11.5452 23.6523C11.5449 23.6523 11.5455 23.6523 11.5452 23.6523C17.3702 23.6473 22.2877 19.3274 22.9952 13.5936C23.0101 13.473 22.9899 13.3506 22.9369 13.2411C22.8838 13.1315 22.8003 13.0393 22.6961 12.9754C22.5919 12.9114 22.4714 12.8784 22.3489 12.8802C22.2264 12.8821 22.107 12.9186 22.0048 12.9857C20.6778 13.8561 19.1226 14.3215 17.5316 14.3232C13.0371 14.3232 9.40722 10.7236 9.40722 6.26629C9.40932 4.69001 9.87784 3.14863 10.7543 1.83365C10.8194 1.73571 10.856 1.62183 10.8599 1.50459C10.8638 1.38736 10.8349 1.27133 10.7765 1.16934C10.7181 1.06735 10.6324 0.983362 10.5288 0.926663C10.4253 0.869964 10.3079 0.842762 10.1898 0.848062ZM9.09738 2.37365C8.52099 3.59969 8.1261 4.90179 8.12442 6.26547C8.12442 6.26519 8.12442 6.26574 8.12442 6.26547C8.12442 11.4103 12.3438 15.5954 17.5316 15.5954C17.5314 15.5954 17.5319 15.5954 17.5316 15.5954C18.9081 15.594 20.2236 15.2022 21.4611 14.6297C20.3471 19.1209 16.3149 22.3757 11.5452 22.3802C5.87013 22.3802 1.28326 17.8317 1.2828 12.2038C1.28906 7.47548 4.57022 3.47831 9.09738 2.37365Z" fill="#684DDF"/>
</svg>
