<svg width="26" height="24" viewBox="0 0 26 24" fill="none" xmlns="http://www.w3.org/2000/svg">
<path d="M12.9984 0.892822C12.716 0.892822 12.4952 1.11442 12.4952 1.39762L12.4936 15.96L9.45601 12.9224C9.25681 12.7232 8.94161 12.7232 8.74161 12.9224C8.54161 13.1216 8.54161 13.4352 8.74161 13.6352L12.6416 17.5336C12.7368 17.6288 12.8648 17.6824 12.9976 17.6824C13.1304 17.6824 13.2584 17.6296 13.3536 17.5336L17.2552 13.632C17.4552 13.432 17.4552 13.1192 17.2552 12.9192C17.0552 12.7192 16.7424 12.7192 16.5424 12.9192L13.5016 15.96V1.39762C13.5016 1.11522 13.2792 0.892822 12.9968 0.892822H12.9984ZM1.07041 11.9448C0.787213 11.9448 0.565613 12.1656 0.565613 12.448V22.604C0.565613 22.8864 0.787213 23.1072 1.07041 23.1072H24.9296C25.2128 23.1072 25.4344 22.8864 25.4344 22.604V12.448C25.4344 12.1656 25.2128 11.9448 24.9296 11.9448C24.6464 11.9448 24.4248 12.1656 24.4248 12.448V22.0992H1.57521V12.448C1.57521 12.1656 1.35361 11.9448 1.07041 11.9448Z" fill="#DB5050"/>
</svg>
