<?xml version="1.0" encoding="UTF-8" standalone="no"?>
<!DOCTYPE svg PUBLIC "-//W3C//DTD SVG 1.1//EN" "http://www.w3.org/Graphics/SVG/1.1/DTD/svg11.dtd">
<svg width="100%" height="100%" viewBox="0 0 1025 1025" version="1.1" xmlns="http://www.w3.org/2000/svg" xmlns:xlink="http://www.w3.org/1999/xlink" xml:space="preserve" xmlns:serif="http://www.serif.com/" style="fill-rule:evenodd;clip-rule:evenodd;stroke-linejoin:round;stroke-miterlimit:2;">
    <g transform="matrix(2,0,0,2,0,0)">
        <g>
            <g>
                <path d="M447.229,67.855L404.048,67.855L404.048,24.675C404.049,11.103 392.944,0 379.379,0L64.771,0C51.2,0 40.097,11.103 40.097,24.675L40.097,419.47C40.097,433.041 51.2,444.145 64.772,444.145L107.953,444.145L107.953,487.326C107.953,500.897 119.051,512.001 132.628,512.001L342.357,512.001C355.922,512.001 375.119,504.389 384.995,495.093L453.924,430.211C463.812,420.915 471.893,402.199 471.893,388.628L471.905,92.532C471.904,78.959 460.8,67.855 447.229,67.855ZM107.951,92.531L107.951,425.639L64.771,425.639C61.428,425.639 58.603,422.814 58.603,419.471L58.603,24.675C58.603,21.332 61.428,18.507 64.771,18.507L379.38,18.507C382.717,18.507 385.548,21.332 385.548,24.675L385.548,67.856L132.626,67.856C119.049,67.856 107.951,78.959 107.951,92.531ZM441.24,416.737L372.311,481.614C370.899,482.941 369.06,484.242 367.03,485.481L367.03,428.723C367.03,424.485 368.739,420.672 371.558,417.835C374.402,415.016 378.214,413.302 382.452,413.302L444.17,413.302C443.213,414.602 442.233,415.799 441.24,416.737ZM453.385,388.626C453.385,390.458 453.051,392.58 452.546,394.794L382.451,394.794C363.73,394.831 348.561,410 348.523,428.722L348.523,492.746C346.321,493.191 344.199,493.492 342.355,493.492L132.626,493.492L132.626,493.493C129.276,493.493 126.458,490.668 126.458,487.325L126.458,92.53C126.458,89.187 129.277,86.362 132.626,86.362L447.228,86.362C450.571,86.362 453.396,89.187 453.396,92.53L453.385,388.626Z" style="fill:rgb(130,143,255);fill-rule:nonzero;"/>
            </g>
        </g>
        <g>
            <g>
                <path d="M379.379,154.216L200.488,154.216C195.374,154.216 191.235,158.355 191.235,163.469C191.235,168.583 195.375,172.722 200.488,172.722L379.379,172.722C384.487,172.722 388.632,168.583 388.632,163.469C388.632,158.355 384.487,154.216 379.379,154.216Z" style="fill:rgb(130,143,255);fill-rule:nonzero;"/>
            </g>
        </g>
        <g>
            <g>
                <path d="M379.379,277.59L200.488,277.59C195.374,277.59 191.235,281.729 191.235,286.843C191.235,291.957 195.375,296.096 200.488,296.096L379.379,296.096C384.487,296.096 388.632,291.957 388.632,286.843C388.632,281.728 384.487,277.59 379.379,277.59Z" style="fill:rgb(130,143,255);fill-rule:nonzero;"/>
            </g>
        </g>
        <g>
            <g>
                <path d="M299.187,339.277L200.489,339.277C195.375,339.277 191.236,343.416 191.236,348.53C191.236,353.644 195.375,357.783 200.489,357.783L299.187,357.783C304.295,357.783 308.434,353.644 308.434,348.53C308.434,343.416 304.295,339.277 299.187,339.277Z" style="fill:rgb(130,143,255);fill-rule:nonzero;"/>
            </g>
        </g>
        <g>
            <g>
                <path d="M379.379,215.903L200.488,215.903C195.374,215.903 191.235,220.042 191.235,225.156C191.235,230.27 195.375,234.409 200.488,234.409L379.379,234.409C384.487,234.409 388.632,230.27 388.632,225.156C388.632,220.042 384.487,215.903 379.379,215.903Z" style="fill:rgb(130,143,255);fill-rule:nonzero;"/>
            </g>
        </g>
    </g>
</svg>
