<?xml version="1.0" encoding="UTF-8" standalone="no"?>
<!DOCTYPE svg PUBLIC "-//W3C//DTD SVG 1.1//EN" "http://www.w3.org/Graphics/SVG/1.1/DTD/svg11.dtd">
<svg width="100%" height="100%" viewBox="0 0 960 960" version="1.1" xmlns="http://www.w3.org/2000/svg" xmlns:xlink="http://www.w3.org/1999/xlink" xml:space="preserve" xmlns:serif="http://www.serif.com/" style="fill-rule:evenodd;clip-rule:evenodd;stroke-linejoin:round;stroke-miterlimit:2;">
    <g transform="matrix(2,0,0,2,0,0)">
        <g>
            <g>
                <g>
                    <path d="M423.924,171.856L423.924,170.056C423.96,94.945 363.099,34.027 287.988,33.992C242.303,33.97 199.659,56.888 174.468,95C124.118,78.193 69.676,105.385 52.869,155.735C49.606,165.512 47.936,175.749 47.924,186.056L47.924,188.112C13.713,196.999 -6.816,231.937 2.071,266.147C9.391,294.326 34.809,314.014 63.924,314.056L207.396,314.056C211.814,314.056 215.396,310.474 215.396,306.056C215.396,301.638 211.814,298.056 207.396,298.056L63.924,298.056C37.415,297.898 16.053,276.281 16.21,249.772C16.351,226.006 33.863,205.922 57.388,202.544C61.62,201.975 64.659,198.182 64.292,193.928C64.076,191.352 63.924,188.704 63.924,186.056C63.981,141.816 99.891,105.998 144.131,106.055C154.622,106.068 165.008,108.143 174.7,112.16C178.373,113.686 182.61,112.282 184.644,108.864C218.389,51.824 291.984,32.94 349.024,66.684C385.559,88.298 407.956,127.606 407.924,170.056C407.924,172.704 407.852,175.272 407.636,177.848C407.265,182.152 410.378,185.973 414.668,186.48C445.362,190.278 467.165,218.239 463.367,248.933C459.902,276.937 436.142,297.989 407.924,298.056C405.518,298.059 403.113,297.918 400.724,297.632C399.576,297.491 398.41,297.637 397.332,298.056L271.636,298.056C267.218,298.056 263.636,301.638 263.636,306.056C263.636,310.474 267.218,314.056 271.636,314.056L399.924,314.056C400.535,314.054 401.143,313.971 401.732,313.808C403.756,313.976 405.828,314.056 407.924,314.056C447.689,314.057 479.925,281.822 479.925,242.057C479.926,208.456 456.685,179.322 423.924,171.856Z" style="fill:rgb(130,143,255);fill-rule:nonzero;"/>
                    <path d="M302.148,364.4L247.924,418.624L247.924,194.056C247.924,189.638 244.342,186.056 239.924,186.056C235.506,186.056 231.924,189.638 231.924,194.056L231.924,418.624L177.7,364.4C174.522,361.33 169.458,361.418 166.388,364.596C163.394,367.696 163.394,372.611 166.388,375.712L234.268,443.592C237.392,446.715 242.456,446.715 245.58,443.592L313.46,375.712C316.53,372.534 316.442,367.47 313.264,364.4C310.164,361.405 305.248,361.405 302.148,364.4Z" style="fill:rgb(130,143,255);fill-rule:nonzero;"/>
                </g>
            </g>
        </g>
    </g>
</svg>
