<?xml version="1.0" encoding="UTF-8" standalone="no"?>
<!DOCTYPE svg PUBLIC "-//W3C//DTD SVG 1.1//EN" "http://www.w3.org/Graphics/SVG/1.1/DTD/svg11.dtd">
<svg width="100%" height="100%" viewBox="0 0 1025 1025" version="1.1" xmlns="http://www.w3.org/2000/svg" xmlns:xlink="http://www.w3.org/1999/xlink" xml:space="preserve" xmlns:serif="http://www.serif.com/" style="fill-rule:evenodd;clip-rule:evenodd;stroke-linejoin:round;stroke-miterlimit:2;">
    <g transform="matrix(2,0,0,2,0,0)">
        <g>
            <g>
                <path d="M497,241C488.716,241 482,247.716 482,256C482,380.617 380.617,482 256,482C131.383,482 30,380.617 30,256C30,131.383 131.383,30 256,30C294,30 330.962,39.435 363.96,57.413L345.207,76.166C340.917,80.456 339.634,86.908 341.955,92.513C344.277,98.118 349.747,101.773 355.813,101.773L427.586,101.773C435.87,101.773 442.586,95.057 442.586,86.773L442.586,15C442.586,8.933 438.931,3.463 433.326,1.142C427.719,-1.18 421.268,0.103 416.979,4.394L385.963,35.409C346.675,12.213 302.004,0 256,0C187.62,0 123.333,26.629 74.98,74.981C26.629,123.333 0,187.62 0,256C0,324.38 26.628,388.668 74.98,437.02C123.333,485.372 187.62,512.001 256,512.001C324.38,512.001 388.667,485.372 437.02,437.02C485.372,388.667 512,324.38 512,256C512,247.716 505.285,241 497,241ZM412.585,51.213L412.585,71.772L392.026,71.772L412.585,51.213Z" style="fill:rgb(130,143,255);fill-rule:nonzero;"/>
            </g>
        </g>
        <g>
            <g>
                <path d="M352.4,241L271,241L271,159.6C271,151.315 264.285,144.6 256,144.6C247.716,144.6 241,151.316 241,159.6L241,256C241,264.284 247.716,271 256,271L352.4,271C360.684,271 367.4,264.284 367.4,256C367.4,247.716 360.684,241 352.4,241Z" style="fill:rgb(130,143,255);fill-rule:nonzero;"/>
            </g>
        </g>
    </g>
</svg>
