<?xml version="1.0" encoding="UTF-8" standalone="no"?>
<!DOCTYPE svg PUBLIC "-//W3C//DTD SVG 1.1//EN" "http://www.w3.org/Graphics/SVG/1.1/DTD/svg11.dtd">
<svg width="100%" height="100%" viewBox="0 0 1024 1024" version="1.1" xmlns="http://www.w3.org/2000/svg" xmlns:xlink="http://www.w3.org/1999/xlink" xml:space="preserve" xmlns:serif="http://www.serif.com/" style="fill-rule:evenodd;clip-rule:evenodd;stroke-linejoin:round;stroke-miterlimit:2;">
    <g transform="matrix(2,0,0,2,0,0)">
        <path d="M464,0L112,0C103.156,0 96,7.156 96,16L96,64L128,64L128,32L448,32L448,480.001L128,480.001L128,448L96,448L96,496C96,504.844 103.156,512 112,512L464,512C472.844,512 480.001,504.844 480.001,496L480.001,16C480.001,7.156 472.844,0 464,0Z" style="fill:rgb(130,143,255);fill-rule:nonzero;"/>
        <path d="M190.062,340.688L212.687,363.313L320,256L212.687,148.687L190.062,171.312L258.75,240L32,240L32,272L258.751,272L190.062,340.688Z" style="fill:rgb(130,143,255);fill-rule:nonzero;"/>
    </g>
</svg>
