<?xml version="1.0" encoding="UTF-8" standalone="no"?>
<!DOCTYPE svg PUBLIC "-//W3C//DTD SVG 1.1//EN" "http://www.w3.org/Graphics/SVG/1.1/DTD/svg11.dtd">
<svg width="100%" height="100%" viewBox="0 0 1024 1024" version="1.1" xmlns="http://www.w3.org/2000/svg" xmlns:xlink="http://www.w3.org/1999/xlink" xml:space="preserve" xmlns:serif="http://www.serif.com/" style="fill-rule:evenodd;clip-rule:evenodd;stroke-linejoin:round;stroke-miterlimit:2;">
    <g transform="matrix(2,0,0,2,0,0)">
        <path d="M450.201,407.453C448.696,406.476 437.369,398.541 426.027,374.536C405.198,330.454 400.826,268.356 400.826,224.025C400.826,223.832 400.822,223.641 400.815,223.449C400.588,164.86 365.505,114.354 315.301,91.693L315.301,57.036C315.301,25.586 289.757,0 258.359,0L253.64,0C222.242,0 196.698,25.586 196.698,57.036L196.698,91.691C146.326,114.425 111.173,165.189 111.173,224.025C111.173,268.356 106.801,330.453 85.972,374.536C74.631,398.54 63.304,406.475 61.798,407.453C55.456,410.388 52.329,417.168 53.788,424.039C55.261,430.978 61.747,435.762 68.83,435.762L178.777,435.762C179.391,477.903 213.785,512 256,512C298.215,512 332.609,477.903 333.223,435.762L443.17,435.762C450.252,435.762 456.739,430.978 458.212,424.039C459.669,417.168 456.543,410.387 450.201,407.453ZM226.699,57.036C226.699,42.155 238.785,30.049 253.641,30.049L258.36,30.049C273.216,30.049 285.302,42.155 285.302,57.036L285.302,81.953C275.834,79.996 266.033,78.966 255.996,78.966C245.962,78.966 236.164,79.995 226.7,81.95L226.7,57.036L226.699,57.036ZM256,481.951C230.327,481.951 209.386,461.334 208.777,435.763L303.222,435.763C302.614,461.333 281.673,481.951 256,481.951ZM408.985,405.712L103.015,405.712C105.61,401.668 108.251,397.089 110.876,391.914C130.98,352.271 141.174,295.785 141.174,224.025C141.174,160.608 192.683,109.015 255.995,109.015C319.307,109.015 370.816,160.608 370.816,224.075C370.816,224.26 370.819,224.444 370.826,224.628C370.883,296.1 381.076,352.383 401.124,391.914C403.749,397.09 406.391,401.668 408.985,405.712Z" style="fill:rgb(130,143,255);fill-rule:nonzero;"/>
    </g>
</svg>
