<?xml version="1.0" encoding="UTF-8" standalone="no"?>
<!DOCTYPE svg PUBLIC "-//W3C//DTD SVG 1.1//EN" "http://www.w3.org/Graphics/SVG/1.1/DTD/svg11.dtd">
<svg width="100%" height="100%" viewBox="0 0 815 815" version="1.1" xmlns="http://www.w3.org/2000/svg" xmlns:xlink="http://www.w3.org/1999/xlink" xml:space="preserve" xmlns:serif="http://www.serif.com/" style="fill-rule:evenodd;clip-rule:evenodd;stroke-linejoin:round;stroke-miterlimit:2;">
    <g transform="matrix(2,0,0,2,0,0)">
        <g>
            <g>
                <path d="M305.178,15.32C277.876,5.439 241.761,0 203.522,0C165.283,0 129.14,5.439 101.837,15.32C62.754,29.464 54.503,47.574 54.503,60.275L54.503,346.725C54.503,359.432 62.743,377.546 101.823,391.687C129.123,401.563 165.235,407.003 203.484,407.003C225.937,407.08 248.348,405.068 270.429,400.995C322.558,390.995 352.503,371.212 352.503,346.725L352.503,60.275C352.503,47.574 344.261,29.464 305.178,15.32ZM108.671,34.125C133.847,25.015 167.526,20 203.503,20C239.48,20 273.159,25.018 298.335,34.129C323.472,43.229 332.428,53.602 332.428,60.278C332.428,66.954 323.472,77.326 298.335,86.423L298.335,86.422C273.159,95.534 239.481,100.551 203.503,100.551C167.525,100.551 133.847,95.534 108.671,86.422C83.534,77.322 74.578,66.95 74.578,60.274C74.578,53.598 83.534,43.223 108.671,34.125ZM332.503,346.725C332.503,352.139 326.803,358.581 316.922,364.4C304.882,371.493 287.486,377.355 266.65,381.353C245.825,385.19 224.688,387.082 203.512,387.003C167.525,387.003 133.802,381.987 108.633,372.88C83.503,363.786 74.503,353.406 74.503,346.725L74.503,282.317C83.027,287.896 92.202,292.411 101.823,295.763C129.123,305.639 165.235,311.079 203.484,311.079C241.733,311.079 277.878,305.639 305.174,295.763C314.797,292.411 323.975,287.896 332.503,282.317L332.503,346.725ZM332.503,250.8C332.503,257.481 323.51,267.861 298.378,276.955C273.209,286.062 239.509,291.078 203.522,291.078C167.535,291.078 133.807,286.062 108.638,276.955C83.503,267.862 74.503,257.482 74.503,250.8L74.503,187.054C83.027,192.633 92.202,197.148 101.823,200.5C129.123,210.376 165.235,215.815 203.484,215.815C241.733,215.815 277.878,210.376 305.174,200.5C314.797,197.148 323.975,192.633 332.503,187.054L332.503,250.8ZM332.503,155.538C332.503,162.219 323.51,172.6 298.378,181.693L298.378,181.692C273.209,190.799 239.509,195.814 203.522,195.814C167.535,195.814 133.803,190.8 108.638,181.692C83.503,172.6 74.503,162.219 74.503,155.538L74.503,91.782C83.029,97.361 92.205,101.877 101.827,105.229C129.127,115.11 165.245,120.552 203.484,120.552C241.723,120.552 277.866,115.11 305.169,105.229C314.794,101.877 323.973,97.361 332.503,91.782L332.503,155.538Z" style="fill:rgb(130,143,255);fill-rule:nonzero;"/>
            </g>
        </g>
        <g>
            <g>
                <path d="M226.503,146.5L180.503,146.5C174.98,146.5 170.503,150.977 170.503,156.5C170.503,162.023 174.98,166.5 180.503,166.5L226.503,166.5C232.026,166.5 236.503,162.023 236.503,156.5C236.503,150.977 232.025,146.5 226.503,146.5Z" style="fill:rgb(130,143,255);fill-rule:nonzero;"/>
            </g>
        </g>
        <g>
            <g>
                <path d="M226.503,240.5L180.503,240.5C174.98,240.5 170.503,244.977 170.503,250.5C170.503,256.023 174.98,260.5 180.503,260.5L226.503,260.5C232.026,260.5 236.503,256.023 236.503,250.5C236.503,244.977 232.025,240.5 226.503,240.5Z" style="fill:rgb(130,143,255);fill-rule:nonzero;"/>
            </g>
        </g>
        <g>
            <g>
                <path d="M226.503,337.5L180.503,337.5C174.98,337.5 170.503,341.977 170.503,347.5C170.503,353.023 174.98,357.5 180.503,357.5L226.503,357.5C232.026,357.5 236.503,353.023 236.503,347.5C236.503,341.977 232.025,337.5 226.503,337.5Z" style="fill:rgb(130,143,255);fill-rule:nonzero;"/>
            </g>
        </g>
    </g>
</svg>
