<?xml version="1.0" encoding="UTF-8" standalone="no"?>
<!DOCTYPE svg PUBLIC "-//W3C//DTD SVG 1.1//EN" "http://www.w3.org/Graphics/SVG/1.1/DTD/svg11.dtd">
<svg width="100%" height="100%" viewBox="0 0 1024 1024" version="1.1" xmlns="http://www.w3.org/2000/svg" xmlns:xlink="http://www.w3.org/1999/xlink" xml:space="preserve" xmlns:serif="http://www.serif.com/" style="fill-rule:evenodd;clip-rule:evenodd;stroke-linejoin:round;stroke-miterlimit:2;">
    <g transform="matrix(2,0,0,2,0,0)">
        <g>
            <path d="M475.294,28.481L36.706,28.481C16.466,28.481 0,44.982 0,65.265L0,453.083C0,469.865 13.601,483.519 30.317,483.519L481.682,483.519C498.399,483.519 511.999,469.866 511.999,453.083L511.999,65.265C512,44.982 495.534,28.481 475.294,28.481ZM20,65.265C20,56.011 27.494,48.482 36.706,48.482L475.294,48.482C484.506,48.482 492,56.011 492,65.265L492,124.697L20,124.697L20,65.265ZM492,453.083C492,458.837 487.372,463.519 481.683,463.519L30.317,463.519C24.627,463.519 20,458.837 20,453.083L20,144.696L492,144.696L492,453.083Z" style="fill:rgb(130,143,255);fill-rule:nonzero;"/>
            <path d="M328.973,76.589L315.539,76.589C310.017,76.589 305.539,81.067 305.539,86.589C305.539,92.111 310.017,96.589 315.539,96.589L328.973,96.589C334.495,96.589 338.973,92.111 338.973,86.589C338.973,81.066 334.495,76.589 328.973,76.589Z" style="fill:rgb(130,143,255);fill-rule:nonzero;"/>
            <path d="M391.104,76.589L377.671,76.589C372.149,76.589 367.671,81.067 367.671,86.589C367.671,92.111 372.149,96.589 377.671,96.589L391.104,96.589C396.627,96.589 401.104,92.111 401.104,86.589C401.104,81.066 396.627,76.589 391.104,76.589Z" style="fill:rgb(130,143,255);fill-rule:nonzero;"/>
            <path d="M453.236,76.589L439.803,76.589C434.281,76.589 429.803,81.067 429.803,86.589C429.803,92.111 434.281,96.589 439.803,96.589L453.236,96.589C458.758,96.589 463.236,92.111 463.236,86.589C463.236,81.066 458.759,76.589 453.236,76.589Z" style="fill:rgb(130,143,255);fill-rule:nonzero;"/>
            <path d="M168.216,76.589L71.267,76.589C65.745,76.589 61.267,81.067 61.267,86.589C61.267,92.111 65.745,96.589 71.267,96.589L168.216,96.589C173.738,96.589 178.216,92.111 178.216,86.589C178.216,81.066 173.738,76.589 168.216,76.589Z" style="fill:rgb(130,143,255);fill-rule:nonzero;"/>
            <path d="M256,443.414C332.308,443.414 394.388,381.333 394.388,305.025C394.388,228.717 332.308,166.638 256,166.638C179.692,166.638 117.612,228.718 117.612,305.026C117.612,381.334 179.692,443.414 256,443.414ZM256,186.638C321.279,186.638 374.388,239.746 374.388,305.026C374.388,370.306 321.279,423.414 256,423.414C190.721,423.414 137.612,370.305 137.612,305.025C137.612,239.745 190.721,186.638 256,186.638Z" style="fill:rgb(130,143,255);fill-rule:nonzero;"/>
            <path d="M202.404,387.978L309.595,387.978C315.117,387.978 319.595,383.5 319.595,377.978L319.595,343.704C319.595,326.831 310.061,311.865 295.988,304.208C303.195,295.344 307.519,284.047 307.519,271.759C307.519,243.351 284.408,220.238 255.999,220.238C227.59,220.238 204.479,243.35 204.479,271.759C204.479,284.044 208.801,295.338 216.004,304.201C201.928,311.847 192.403,326.798 192.403,343.705L192.403,377.979C192.404,383.5 196.882,387.978 202.404,387.978ZM256,240.237C273.38,240.237 287.52,254.377 287.52,271.758C287.52,289.138 273.38,303.278 256,303.278C238.62,303.278 224.48,289.138 224.48,271.758C224.48,254.377 238.62,240.237 256,240.237ZM212.404,343.703C212.404,330.805 222.391,319.961 235.193,318.887C241.559,321.709 248.6,323.277 256,323.277C263.4,323.277 270.441,321.709 276.807,318.887C289.598,319.959 299.596,330.83 299.596,343.703L299.596,367.977L212.405,367.977L212.405,343.703L212.404,343.703Z" style="fill:rgb(130,143,255);fill-rule:nonzero;"/>
        </g>
    </g>
</svg>
