<?xml version="1.0" encoding="iso-8859-1"?>
<!-- Generator: Adobe Illustrator 19.0.0, SVG Export Plug-In . SVG Version: 6.00 Build 0)  -->
<svg version="1.1" id="Capa_1" xmlns="http://www.w3.org/2000/svg" xmlns:xlink="http://www.w3.org/1999/xlink" x="0px" y="0px"
	 viewBox="0 0 512.001 512.001" style="enable-background:new 0 0 512.001 512.001;" xml:space="preserve">
<g>
	<g>
		<path d="M497,241c-8.284,0-15,6.716-15,15c0,124.617-101.383,226-226,226S30,380.617,30,256S131.383,30,256,30
			c38,0,74.962,9.435,107.96,27.413l-18.753,18.753c-4.29,4.29-5.573,10.742-3.252,16.347c2.322,5.605,7.792,9.26,13.858,9.26
			h71.773c8.284,0,15-6.716,15-15V15c0-6.067-3.655-11.537-9.26-13.858c-5.607-2.322-12.058-1.039-16.347,3.252l-31.016,31.015
			C346.675,12.213,302.004,0,256,0C187.62,0,123.333,26.629,74.98,74.981C26.629,123.333,0,187.62,0,256
			S26.628,388.668,74.98,437.02c48.353,48.352,112.64,74.981,181.02,74.981s132.667-26.629,181.02-74.981
			C485.372,388.667,512,324.38,512,256C512,247.716,505.285,241,497,241z M412.585,51.213v20.559h-20.559L412.585,51.213z"/>
	</g>
</g>
<g>
	<g>
		<path d="M352.4,241H271v-81.4c0-8.285-6.715-15-15-15c-8.284,0-15,6.716-15,15V256c0,8.284,6.716,15,15,15h96.4
			c8.284,0,15-6.716,15-15C367.4,247.716,360.684,241,352.4,241z"/>
	</g>
</g>
<g>
</g>
<g>
</g>
<g>
</g>
<g>
</g>
<g>
</g>
<g>
</g>
<g>
</g>
<g>
</g>
<g>
</g>
<g>
</g>
<g>
</g>
<g>
</g>
<g>
</g>
<g>
</g>
<g>
</g>
</svg>
